<?xml version="1.0" encoding="iso-8859-1"?>
<!-- Generator: Adobe Illustrator 19.0.0, SVG Export Plug-In . SVG Version: 6.00 Build 0)  -->
<svg version="1.1" id="Capa_1" xmlns="http://www.w3.org/2000/svg" xmlns:xlink="http://www.w3.org/1999/xlink" x="0px" y="0px"
	 viewBox="0 0 512 512" style="enable-background:new 0 0 512 512;" xml:space="preserve">
<path style="fill:#1689FC;" d="M497,45v422c0,16.5-13.5,30-30,30H45c-16.5,0-30-13.5-30-30V45c0-16.5,13.5-30,30-30h422
	C483.5,15,497,28.5,497,45z"/>
<path style="fill:#136EF1;" d="M497,45v422c0,16.5-13.5,30-30,30H256V15h211C483.5,15,497,28.5,497,45z"/>
<path style="fill:#CAE8F9;" d="M136,361c-5.684,0-10.869-3.208-13.418-8.291l-60-120C57.573,222.66,64.964,211,76,211h120
	c11.036,0,18.427,11.66,13.418,21.709l-60,120C146.869,357.792,141.684,361,136,361z"/>
<path style="fill:#B7E0F6;" d="M436,361H316c-11.036,0-18.427-11.66-13.418-21.709l60-120c5.098-10.166,21.738-10.166,26.836,0
	l60,120C454.427,349.34,447.036,361,436,361z"/>
<path style="fill:#CAE8F9;" d="M136,181c-24.814,0-45-20.186-45-45s20.186-45,45-45s45,20.186,45,45S160.814,181,136,181z"/>
<path style="fill:#B7E0F6;" d="M376,181c-24.814,0-45-20.186-45-45s20.186-45,45-45s45,20.186,45,45S400.814,181,376,181z"/>
<path style="fill:#CAE8F9;" d="M136,421c-8.291,0-15-6.709-15-15v-60c0-8.291,6.709-15,15-15s15,6.709,15,15v60
	C151,414.291,144.291,421,136,421z"/>
<path style="fill:#B7E0F6;" d="M376,421c-8.291,0-15-6.709-15-15v-60c0-8.291,6.709-15,15-15s15,6.709,15,15v60
	C391,414.291,384.291,421,376,421z"/>
<path style="fill:#CAE8F9;" d="M271,106v300c0,8.399-6.599,15-15,15s-15-6.601-15-15V106c0-8.401,6.599-15,15-15S271,97.599,271,106
	z"/>
<path style="fill:#57555C;" d="M467,0H45C20.099,0,0,20.099,0,45v422c0,24.899,20.099,45,45,45h422c24.901,0,45-20.101,45-45V45
	C512,20.099,491.901,0,467,0z M482,467c0,8.399-6.599,15-15,15H45c-8.401,0-15-6.601-15-15V45c0-8.401,6.599-15,15-15h422
	c8.401,0,15,6.599,15,15V467z"/>
<path style="fill:#B7E0F6;" d="M256,421V91c8.401,0,15,6.599,15,15v300C271,414.399,264.401,421,256,421z"/>
<path style="fill:#3C3A41;" d="M512,45v422c0,24.899-20.099,45-45,45H256v-30h211c8.401,0,15-6.601,15-15V45c0-8.401-6.599-15-15-15
	H256V0h211C491.901,0,512,20.099,512,45z"/>
<g>
</g>
<g>
</g>
<g>
</g>
<g>
</g>
<g>
</g>
<g>
</g>
<g>
</g>
<g>
</g>
<g>
</g>
<g>
</g>
<g>
</g>
<g>
</g>
<g>
</g>
<g>
</g>
<g>
</g>
</svg>
