<?xml version="1.0" encoding="iso-8859-1"?>
<!-- Generator: Adobe Illustrator 19.0.0, SVG Export Plug-In . SVG Version: 6.00 Build 0)  -->
<svg version="1.1" id="Capa_1" xmlns="http://www.w3.org/2000/svg" xmlns:xlink="http://www.w3.org/1999/xlink" x="0px" y="0px"
	 viewBox="0 0 512 512" style="enable-background:new 0 0 512 512;" xml:space="preserve">
<rect x="256" style="fill:#555970;" width="30" height="45"/>
<polygon style="fill:#F9A167;" points="211,150 106,150 106,180 136,180 136,210 166,210 166,180 211,180 "/>
<g>
	<path style="fill:#555970;" d="M76,272v15c0,57.897,47.103,105,105,105h45V272H76z"/>
	<path style="fill:#555970;" d="M346,423.507V302l-20-15l20-15V105c0-41.355-33.645-75-75-75l-40,467h175
		C406,460.781,380.19,430.477,346,423.507z"/>
</g>
<g>
	<path style="fill:#4482D9;" d="M196,105v167l20,15l-20,15v121.507c-34.19,6.97-60,37.274-60,73.493h135V30
		C229.645,30,196,63.645,196,105z"/>
	<polygon style="fill:#4482D9;" points="376,90 271,90 243.5,105 271,120 376,120 	"/>
</g>
<rect x="166" y="90" style="fill:#69A8FF;" width="105" height="30"/>
<polygon style="fill:#4482D9;" points="346,272 271,272 251,287 271,302 346,302 "/>
<rect x="196" y="272" style="fill:#69A8FF;" width="75" height="30"/>
<polygon style="fill:#4482D9;" points="436,482 271,482 251,497 271,512 436,512 "/>
<rect x="106" y="482" style="fill:#69A8FF;" width="165" height="30"/>
<g>
</g>
<g>
</g>
<g>
</g>
<g>
</g>
<g>
</g>
<g>
</g>
<g>
</g>
<g>
</g>
<g>
</g>
<g>
</g>
<g>
</g>
<g>
</g>
<g>
</g>
<g>
</g>
<g>
</g>
</svg>
